<svg width="144" height="144" viewBox="0 0 144 144" fill="none" xmlns="http://www.w3.org/2000/svg">
<path d="M58.0494 55.3104L89.7744 45.8966L75.4796 88.2528L84.992 85.2278L63.2551 136.467L66.0675 97.6373L57.8153 99.5571L58.0494 55.3104Z" fill="#494949"/>
<path d="M83.0152 30.6038C83.0152 38.7285 75.9464 45.4886 67.3472 45.4886C58.748 45.4886 55.0815 41.0548 52.1934 35.6324C52.1934 35.6324 51.3758 33.0367 50.3813 32.5979C48.2374 31.6521 48.6918 30.0836 49.2526 28.9359C50.0413 27.3216 53.4308 28.5997 54.2917 27.0227C55.0557 25.6233 55.7187 24.6954 53.3016 22.3433C51.8594 20.9399 52.3928 18.2893 53.7367 17.2322C55.1185 16.1451 57.8965 16.2774 58.9497 18.0348C60.5321 20.6753 62.9253 19.9969 63.6881 19.2493C65.6359 17.3403 63.6197 14.2013 65.4935 13.3687C66.6294 12.8639 69.2474 13.1049 68.8726 14.9455C68.5647 16.4581 69.972 15.3851 77.0656 19.12C81.9577 21.6958 83.0152 26.5415 83.0152 30.6038Z" fill="#494949"/>
<path d="M54.3423 51.5463L86.3448 41.9951L89.7744 45.8966L58.0493 55.3104L57.8152 99.5571L54.3298 95.5906L54.3423 51.5463Z" fill="#C6D728"/>
<path d="M66.0675 97.6373L63.255 136.467L59.1261 132.552L61.7593 98.8649L66.0675 97.6373Z" fill="#C6D728"/>
<path d="M75.4795 88.2528L84.9919 85.2278L81.8251 81.2072L77.3026 82.5912L75.4795 88.2528Z" fill="#C6D728"/>
<path d="M46.2464 53.261C47.3163 53.261 48.1836 52.454 48.1836 51.4584C48.1836 50.4628 47.3163 49.6557 46.2464 49.6557C45.1764 49.6557 44.3091 50.4628 44.3091 51.4584C44.3091 52.454 45.1764 53.261 46.2464 53.261Z" fill="#494949"/>
<path d="M45.9387 35.1685C46.6668 35.1685 47.257 34.5714 47.257 33.8349C47.257 33.0983 46.6668 32.5012 45.9387 32.5012C45.2106 32.5012 44.6204 33.0983 44.6204 33.8349C44.6204 34.5714 45.2106 35.1685 45.9387 35.1685Z" fill="#494949"/>
<path d="M90.403 41.8294C91.103 41.8294 91.6705 41.3009 91.6705 40.6489C91.6705 39.9969 91.103 39.4684 90.403 39.4684C89.703 39.4684 89.1355 39.9969 89.1355 40.6489C89.1355 41.3009 89.703 41.8294 90.403 41.8294Z" fill="#494949"/>
<path d="M86.1856 28.8245C86.9126 28.8245 87.5019 28.263 87.5019 27.5702C87.5019 26.8775 86.9126 26.316 86.1856 26.316C85.4586 26.316 84.8693 26.8775 84.8693 27.5702C84.8693 28.263 85.4586 28.8245 86.1856 28.8245Z" fill="#494949"/>
<path d="M82.0472 11.8816C83.0548 11.8816 83.8715 11.1007 83.8715 10.1376C83.8715 9.17439 83.0548 8.39358 82.0472 8.39358C81.0397 8.39358 80.2229 9.17439 80.2229 10.1376C80.2229 11.1007 81.0397 11.8816 82.0472 11.8816Z" fill="#494949"/>
<path d="M77.907 18.8884C77.907 18.8884 82.8933 17.5381 86.2575 18.7523C87.9395 19.3594 90.7665 21.2302 91.9767 23.7067C93.1869 26.1832 92.7803 29.2654 92.7803 29.2654C92.7803 29.2654 92.1502 27.0702 90.9362 25.2409C89.7221 23.4116 87.9242 21.9482 86.1849 21.3759C82.7062 20.2311 79.7091 21.0058 79.7091 21.0058C79.7091 21.0058 78.9738 20.3141 78.6733 19.9593C78.3729 19.6045 77.907 18.8884 77.907 18.8884Z" fill="#494949"/>
<path d="M52.9711 45.6734C52.9711 45.6734 61.8862 42.4943 66.4521 33.0459C71.0181 23.5974 74.6338 19.7768 77.907 18.8884C81.1803 18.0001 79.7091 21.0058 79.7091 21.0058C79.7091 21.0058 77.0182 22.1346 75.1329 23.9884C72.6762 26.4041 70.0219 30.6649 68.0303 34.3258C64.0874 41.5732 52.9711 45.6734 52.9711 45.6734Z" fill="#494949"/>
<path d="M54.7441 24.4027L59.7579 25.7531L59.6824 25.7286C59.6824 25.7286 57.6038 25.3755 56.5593 25.2349C55.9069 25.1471 54.5966 25.0166 54.5966 25.0166L54.7441 24.4027Z" fill="#494949"/>
<path d="M41.4188 41.0054C39.9015 39.3413 38.8785 36.8878 39.1279 34.6497C39.5046 31.2688 41.775 27.9157 44.617 26.046C47.474 24.1665 54.7441 24.4027 54.7441 24.4027L54.5966 25.0166C54.5966 25.0166 47.8464 25.4449 45.3523 27.4245C43.1752 29.1524 41.157 32.0443 41.4732 34.8057C41.7818 37.5002 44.1415 40.3745 46.7883 40.9659C50.8975 41.8841 58.326 35.8237 58.326 35.8237C58.326 35.8237 55.7892 38.9106 54.1682 40.0347C51.8935 41.6123 49.3565 43.4521 46.5884 43.4282C44.6854 43.4117 42.7009 42.4117 41.4188 41.0054Z" fill="#494949"/>
<path d="M47.1823 43.4759C47.1823 43.4759 54.7317 42.6537 57.7011 40.5495C64.1662 35.9682 68.0705 26.5335 71.3024 21.054C71.3024 21.054 75.9959 13.411 85.2081 15.8492C85.2081 15.8492 75.0077 12.1773 67.4838 22.336C63.7394 27.3917 61.2593 32.9333 57.0783 37.3661C55.3717 39.1756 53.4663 40.4466 51.2019 41.9648C49.9716 42.7897 47.1823 43.4759 47.1823 43.4759Z" fill="#C6D728"/>
<path d="M71.4518 33.0273C71.4518 33.0273 76.5959 34.9113 79.2915 35.2319C81.2197 35.4613 83.2551 35.5799 85.1127 35.0144C86.3988 34.6229 87.6051 33.8568 88.5432 32.8939C89.4234 31.9904 90.1963 30.8602 90.4482 29.6242C90.7056 28.3613 90.3949 27.0029 89.9644 25.7881C89.4787 24.4176 87.6631 22.0824 87.6631 22.0824C87.6631 22.0824 89.4603 23.1717 90.4615 24.601C90.9562 25.3073 91.8204 26.6865 92.254 27.8427C92.5302 28.5791 92.8611 29.0328 92.7405 29.6425C92.2312 32.2176 90.2808 34.6898 87.9461 35.8897C85.1643 37.3194 81.6377 36.8023 78.5681 36.2019C76.019 35.7033 71.4518 33.0273 71.4518 33.0273Z" fill="#C6D728"/>
</svg>
