<svg width="50" height="50" viewBox="0 0 50 50" fill="none" xmlns="http://www.w3.org/2000/svg">
<path d="M27.8582 4.36247C22.8751 3.67967 17.8132 4.82208 13.6064 7.57894C9.39962 10.3358 6.33182 14.5211 4.96903 19.3626C3.60623 24.2041 4.04039 29.3751 6.19141 33.9216C8.34243 38.468 12.0652 42.0832 16.6727 44.1C16.5489 42.5004 16.6626 40.8912 17.0102 39.325C17.3957 37.5771 19.7102 27.9437 19.7102 27.9437C19.2468 26.9114 19.0164 25.7897 19.0352 24.6583C19.0352 21.5646 20.8207 19.2562 23.0415 19.2562C23.4405 19.2504 23.836 19.3306 24.2012 19.4913C24.5665 19.652 24.8928 19.8894 25.1581 20.1875C25.4233 20.4856 25.6213 20.8373 25.7385 21.2187C25.8557 21.6001 25.8894 22.0023 25.8373 22.3979C25.8373 24.2729 24.6332 27.1104 24.004 29.7729C23.8797 30.2612 23.8718 30.7719 23.981 31.2638C24.0902 31.7557 24.3134 32.215 24.6327 32.6048C24.9519 32.9947 25.3583 33.304 25.8191 33.508C26.2798 33.712 26.782 33.8048 27.2852 33.7791C31.2373 33.7791 33.8894 28.7146 33.8894 22.7354C33.8894 18.15 30.854 14.7208 25.2582 14.7208C23.9195 14.6688 22.5843 14.8893 21.3335 15.3691C20.0827 15.8488 18.9425 16.5777 17.9819 17.5115C17.0214 18.4453 16.2607 19.5646 15.7459 20.8014C15.2311 22.0382 14.9731 23.3667 14.9873 24.7062C14.9277 26.1923 15.4071 27.6499 16.3373 28.8104C16.5111 28.9401 16.6381 29.1229 16.6989 29.3311C16.7598 29.5393 16.7514 29.7616 16.6748 29.9646C16.579 30.3479 16.3373 31.2625 16.2415 31.6C16.2213 31.7135 16.1747 31.8208 16.1055 31.9131C16.0364 32.0054 15.9465 32.0802 15.8431 32.1314C15.7398 32.1827 15.6259 32.209 15.5106 32.2082C15.3952 32.2075 15.2816 32.1797 15.179 32.1271C12.2957 30.9729 10.9373 27.8 10.9373 24.1771C10.9373 18.2458 15.904 11.1458 25.8415 11.1458C33.7498 11.1458 39.0061 16.9312 39.0061 23.1187C39.0061 31.2625 34.4727 37.3854 27.7707 37.3854C26.7689 37.4176 25.7753 37.1966 24.8816 36.7429C23.988 36.2891 23.2232 35.6173 22.6582 34.7896C22.6582 34.7896 21.4519 39.6146 21.2165 40.5271C20.7324 42.1038 20.017 43.6 19.0936 44.9666C21.0165 45.55 23.0144 45.8416 25.0227 45.8333C27.759 45.8349 30.4688 45.297 32.997 44.2502C35.5251 43.2035 37.8221 41.6685 39.7563 39.7331C41.6906 37.7976 43.2242 35.4998 44.2695 32.971C45.3147 30.4422 45.851 27.7321 45.8477 24.9958C45.8465 19.9639 44.0242 15.1026 40.7174 11.3098C37.4107 7.51708 32.8429 5.04932 27.8582 4.36247Z" fill="#C6D728"/>
</svg>
