<svg width="50" height="50" viewBox="0 0 50 50" fill="none" xmlns="http://www.w3.org/2000/svg">
<path d="M27.1412 4.16669C29.485 4.17294 30.6746 4.18544 31.7016 4.2146L32.1058 4.22919C32.5725 4.24585 33.0329 4.26669 33.5891 4.29169C35.8058 4.39585 37.3183 4.74585 38.6454 5.26044C40.0204 5.7896 41.1787 6.50627 42.3371 7.66252C43.3968 8.70363 44.2166 9.9635 44.7391 11.3542C45.2537 12.6813 45.6037 14.1938 45.7079 16.4125C45.7329 16.9667 45.7537 17.4271 45.7704 17.8959L45.7829 18.3C45.8141 19.325 45.8266 20.5146 45.8308 22.8584L45.8329 24.4125V27.1417C45.838 28.6613 45.822 30.1809 45.785 31.7L45.7725 32.1042C45.7558 32.5729 45.735 33.0334 45.71 33.5875C45.6058 35.8063 45.2516 37.3167 44.7391 38.6459C44.2166 40.0365 43.3968 41.2964 42.3371 42.3375C41.2959 43.3973 40.0361 44.2171 38.6454 44.7396C37.3183 45.2542 35.8058 45.6042 33.5891 45.7084L32.1058 45.7709L31.7016 45.7834C30.6746 45.8125 29.485 45.8271 27.1412 45.8313L25.5871 45.8334H22.86C21.3397 45.8387 19.8194 45.8227 18.2996 45.7854L17.8954 45.7729C17.4008 45.7542 16.9064 45.7327 16.4121 45.7084C14.1954 45.6042 12.6829 45.2542 11.3537 44.7396C9.96379 44.2168 8.70465 43.397 7.66414 42.3375C6.60361 41.2966 5.78312 40.0367 5.25997 38.6459C4.74539 37.3188 4.39539 35.8063 4.29122 33.5875L4.22872 32.1042L4.21831 31.7C4.1799 30.1809 4.16254 28.6613 4.16622 27.1417V22.8584C4.16046 21.3388 4.17574 19.8192 4.21206 18.3L4.22664 17.8959C4.24331 17.4271 4.26414 16.9667 4.28914 16.4125C4.39331 14.1938 4.74331 12.6834 5.25789 11.3542C5.78225 9.96293 6.60419 8.70301 7.66622 7.66252C8.70613 6.60325 9.96453 5.78351 11.3537 5.26044C12.6829 4.74585 14.1933 4.39585 16.4121 4.29169C16.9662 4.26669 17.4287 4.24585 17.8954 4.22919L18.2996 4.21669C19.8187 4.17967 21.3383 4.1637 22.8579 4.16877L27.1412 4.16669ZM24.9996 14.5834C22.2369 14.5834 19.5874 15.6808 17.6339 17.6343C15.6804 19.5878 14.5829 22.2373 14.5829 25C14.5829 27.7627 15.6804 30.4122 17.6339 32.3657C19.5874 34.3192 22.2369 35.4167 24.9996 35.4167C27.7622 35.4167 30.4117 34.3192 32.3653 32.3657C34.3188 30.4122 35.4162 27.7627 35.4162 25C35.4162 22.2373 34.3188 19.5878 32.3653 17.6343C30.4117 15.6808 27.7622 14.5834 24.9996 14.5834ZM24.9996 18.75C25.8203 18.7499 26.6331 18.9114 27.3914 19.2254C28.1497 19.5393 28.8388 19.9996 29.4193 20.5799C29.9997 21.1601 30.4602 21.8491 30.7744 22.6073C31.0887 23.3655 31.2505 24.1782 31.2506 24.999C31.2507 25.8197 31.0892 26.6325 30.7752 27.3908C30.4613 28.1492 30.001 28.8382 29.4208 29.4187C28.8405 29.9992 28.1516 30.4597 27.3933 30.7739C26.6351 31.0881 25.8224 31.2499 25.0016 31.25C23.344 31.25 21.7543 30.5915 20.5822 29.4194C19.4101 28.2473 18.7516 26.6576 18.7516 25C18.7516 23.3424 19.4101 21.7527 20.5822 20.5806C21.7543 19.4085 23.344 18.75 25.0016 18.75M35.9391 11.4584C35.2485 11.4584 34.5861 11.7327 34.0977 12.2211C33.6093 12.7095 33.335 13.3719 33.335 14.0625C33.335 14.7532 33.6093 15.4156 34.0977 15.9039C34.5861 16.3923 35.2485 16.6667 35.9391 16.6667C36.6298 16.6667 37.2922 16.3923 37.7806 15.9039C38.2689 15.4156 38.5433 14.7532 38.5433 14.0625C38.5433 13.3719 38.2689 12.7095 37.7806 12.2211C37.2922 11.7327 36.6298 11.4584 35.9391 11.4584Z" fill="#C6D728"/>
</svg>
