<svg width="50" height="50" viewBox="0 0 50 50" fill="none" xmlns="http://www.w3.org/2000/svg">
<path d="M33.3333 17.1771V32.2917C33.3327 35.1043 32.4563 37.8469 30.8259 40.1387C29.1955 42.4305 26.8919 44.1577 24.235 45.0806C21.5781 46.0035 18.6998 46.0762 15.9997 45.2886C13.2997 44.501 10.9118 42.8923 9.16778 40.6857C7.42373 38.4791 6.41003 35.7842 6.26742 32.9753C6.12482 30.1663 6.8604 27.3826 8.37201 25.0108C9.88363 22.6389 12.0963 20.7966 14.7027 19.7396C17.3091 18.6826 20.18 18.4635 22.9167 19.1125V25.7021C21.4892 25.025 19.8804 24.8298 18.3325 25.146C16.7845 25.4622 15.3812 26.2725 14.3335 27.4552C13.2859 28.6378 12.6508 30.1287 12.5236 31.7035C12.3965 33.2783 12.7843 34.8517 13.6287 36.1871C14.473 37.5225 15.7283 38.5474 17.2055 39.1078C18.6827 39.6682 20.3019 39.7336 21.8195 39.2942C23.3371 38.8548 24.6709 37.9344 25.6202 36.6715C26.5695 35.4087 27.083 33.8716 27.0833 32.2917V4.16669H33.3333C33.3333 6.92936 34.4308 9.57888 36.3843 11.5324C38.3378 13.4859 40.9873 14.5834 43.75 14.5834V20.8334C39.9624 20.8384 36.2869 19.5483 33.3333 17.1771Z" fill="#C6D728"/>
</svg>
