<svg width="50" height="50" viewBox="0 0 50 50" fill="none" xmlns="http://www.w3.org/2000/svg">
<path d="M38.2 38.2063H32.6479V29.5042C32.6479 27.4292 32.6062 24.7583 29.7521 24.7583C26.8583 24.7583 26.4167 27.0167 26.4167 29.3521V38.2063H20.8625V20.3125H26.1958V22.75H26.2687C27.0146 21.3458 28.8271 19.8604 31.5354 19.8604C37.1604 19.8604 38.2021 23.5646 38.2021 28.3854L38.2 38.2063ZM14.5917 17.8646C14.1678 17.8651 13.748 17.782 13.3564 17.62C12.9647 17.458 12.6089 17.2203 12.3093 16.9205C12.0097 16.6207 11.7722 16.2647 11.6104 15.8729C11.4487 15.4812 11.3658 15.0613 11.3667 14.6375C11.3671 13.9997 11.5566 13.3763 11.9113 12.8461C12.266 12.316 12.77 11.903 13.3594 11.6593C13.9489 11.4156 14.5974 11.3521 15.2229 11.477C15.8484 11.6018 16.4228 11.9093 16.8736 12.3606C17.3243 12.812 17.6311 13.3868 17.7551 14.0125C17.8791 14.6381 17.8149 15.2865 17.5704 15.8757C17.3259 16.4648 16.9122 16.9682 16.3816 17.3222C15.8511 17.6763 15.2274 17.865 14.5896 17.8646M17.3729 38.2063H11.8062V20.3125H17.375L17.3729 38.2063ZM40.9792 6.25H9.02083C7.4875 6.25 6.25 7.45833 6.25 8.95208V41.0479C6.25 42.5417 7.4875 43.75 9.01667 43.75H40.9729C42.5 43.75 43.75 42.5417 43.75 41.0479V8.95208C43.75 7.46042 42.5 6.25 40.9708 6.25H40.9792Z" fill="#C6D728"/>
</svg>
