<svg width="50" height="50" viewBox="0 0 50 50" fill="none" xmlns="http://www.w3.org/2000/svg">
<path d="M38.2583 36.175L25 49.4333L11.7417 36.175C9.11946 33.5527 7.33372 30.2118 6.61027 26.5747C5.88681 22.9375 6.25814 19.1675 7.67729 15.7414C9.09644 12.3153 11.4997 9.387 14.5831 7.32674C17.6665 5.26647 21.2916 4.16681 25 4.16681C28.7084 4.16681 32.3335 5.26647 35.4169 7.32674C38.5003 9.387 40.9036 12.3153 42.3227 15.7414C43.7419 19.1675 44.1132 22.9375 43.3897 26.5747C42.6663 30.2118 40.8806 33.5527 38.2583 36.175ZM25 27.0833C26.1051 27.0833 27.1649 26.6443 27.9463 25.8629C28.7277 25.0815 29.1667 24.0217 29.1667 22.9166C29.1667 21.8116 28.7277 20.7518 27.9463 19.9704C27.1649 19.189 26.1051 18.75 25 18.75C23.8949 18.75 22.8351 19.189 22.0537 19.9704C21.2723 20.7518 20.8333 21.8116 20.8333 22.9166C20.8333 24.0217 21.2723 25.0815 22.0537 25.8629C22.8351 26.6443 23.8949 27.0833 25 27.0833Z" fill="#292929"/>
</svg>
