<svg width="50" height="50" viewBox="0 0 50 50" fill="none" xmlns="http://www.w3.org/2000/svg">
<path d="M25.0023 4.16669C36.5086 4.16669 45.8356 13.4938 45.8356 25C45.8356 36.5063 36.5086 45.8334 25.0023 45.8334C21.3205 45.8397 17.7035 44.8653 14.5231 43.0104L4.17731 45.8334L6.99398 35.4834C5.13764 32.302 4.16253 28.6834 4.16898 25C4.16898 13.4938 13.4961 4.16669 25.0023 4.16669ZM17.9023 15.2084L17.4856 15.225C17.2162 15.2436 16.953 15.3143 16.7106 15.4334C16.4848 15.5615 16.2785 15.7215 16.0981 15.9084C15.8481 16.1438 15.7065 16.3479 15.5544 16.5459C14.7838 17.5477 14.3689 18.7778 14.3752 20.0417C14.3794 21.0625 14.6461 22.0563 15.0627 22.9854C15.9148 24.8646 17.3169 26.8542 19.1669 28.6979C19.6127 29.1417 20.0502 29.5875 20.5211 30.0021C22.8199 32.0259 25.5591 33.4854 28.5211 34.2646L29.7044 34.4459C30.0898 34.4667 30.4752 34.4375 30.8627 34.4188C31.4694 34.3868 32.0617 34.2225 32.5981 33.9375C32.8707 33.7966 33.137 33.6436 33.3961 33.4792C33.3961 33.4792 33.4843 33.4195 33.6565 33.2917C33.9377 33.0834 34.1106 32.9354 34.344 32.6917C34.519 32.5111 34.6648 32.3014 34.7815 32.0625C34.944 31.7229 35.1065 31.075 35.1731 30.5354C35.2231 30.1229 35.2086 29.8979 35.2023 29.7584C35.194 29.5354 35.0086 29.3042 34.8065 29.2063L33.594 28.6625C33.594 28.6625 31.7815 27.8729 30.6731 27.3688C30.5571 27.3183 30.4329 27.2893 30.3065 27.2834C30.1639 27.2684 30.0198 27.2843 29.884 27.33C29.7481 27.3756 29.6236 27.45 29.519 27.5479C29.5086 27.5438 29.369 27.6625 27.8627 29.4875C27.7763 29.6037 27.6572 29.6915 27.5206 29.7397C27.3841 29.788 27.2363 29.7944 27.0961 29.7584C26.9603 29.7222 26.8273 29.6762 26.6981 29.6209C26.4398 29.5125 26.3502 29.4709 26.1731 29.3959C24.977 28.8748 23.8699 28.1698 22.8919 27.3063C22.6294 27.0771 22.3856 26.8271 22.1356 26.5854C21.3161 25.8005 20.6018 24.9125 20.0106 23.9438L19.8877 23.7459C19.8008 23.6121 19.7295 23.4688 19.6752 23.3188C19.5961 23.0125 19.8023 22.7667 19.8023 22.7667C19.8023 22.7667 20.3086 22.2125 20.544 21.9125C20.7731 21.6209 20.9669 21.3375 21.0919 21.1354C21.3377 20.7396 21.4148 20.3334 21.2856 20.0188C20.7023 18.5938 20.0995 17.1764 19.4773 15.7667C19.3544 15.4875 18.9898 15.2875 18.6586 15.2479C18.5461 15.234 18.4336 15.2229 18.3211 15.2146C18.0413 15.1986 17.7608 15.2013 17.4815 15.2229L17.9023 15.2084Z" fill="#292929"/>
</svg>
