<svg width="50" height="50" viewBox="0 0 50 50" fill="none" xmlns="http://www.w3.org/2000/svg">
<path d="M29.419 21.8333C29.0283 21.4428 28.4985 21.2234 27.946 21.2234C27.3936 21.2234 26.8638 21.4428 26.4731 21.8333L25.0002 23.3042C24.2144 24.0632 23.1618 24.4831 22.0694 24.4737C20.9769 24.4642 19.9318 24.026 19.1593 23.2534C18.3868 22.4809 17.9486 21.4358 17.9391 20.3433C17.9296 19.2509 18.3495 18.1984 19.1085 17.4125L30.8377 5.67918C33.6146 5.04757 36.52 5.30751 39.1407 6.42204C41.7614 7.53658 43.964 9.44897 45.4354 11.8873C46.9067 14.3256 47.5719 17.1657 47.3363 20.0038C47.1007 22.8419 45.9764 25.5335 44.1231 27.6958L39.7314 32.1438L29.419 21.8333ZM6.58562 9.30834C8.74078 7.15189 11.5606 5.7858 14.5887 5.43115C17.6167 5.07651 20.6759 5.75407 23.271 7.35418L16.1606 14.4667C14.6206 16.0036 13.7428 18.0819 13.7147 20.2574C13.6865 22.433 14.5104 24.5332 16.0102 26.1095C17.5099 27.6857 19.5667 28.6128 21.7409 28.6928C23.9152 28.7728 26.0345 27.9993 27.646 26.5375L27.946 26.2521L36.7856 35.0896L27.946 43.9292C27.1647 44.7103 26.1051 45.1491 25.0002 45.1491C23.8953 45.1491 22.8357 44.7103 22.0544 43.9292L6.58353 28.4583C4.04423 25.9188 2.61768 22.4746 2.61768 18.8833C2.61768 15.2921 4.04631 11.8479 6.58562 9.30834Z" fill="#EEEEEE"/>
</svg>
