<svg width="50" height="50" viewBox="0 0 50 50" fill="none" xmlns="http://www.w3.org/2000/svg">
<path d="M6.25033 6.25H43.7503C44.3029 6.25 44.8328 6.46949 45.2235 6.86019C45.6142 7.25089 45.8337 7.7808 45.8337 8.33333V41.6667C45.8337 42.2192 45.6142 42.7491 45.2235 43.1398C44.8328 43.5305 44.3029 43.75 43.7503 43.75H6.25033C5.69779 43.75 5.16789 43.5305 4.77719 43.1398C4.38649 42.7491 4.16699 42.2192 4.16699 41.6667V8.33333C4.16699 7.7808 4.38649 7.25089 4.77719 6.86019C5.16789 6.46949 5.69779 6.25 6.25033 6.25ZM25.1253 24.3396L11.767 12.9958L9.06908 16.1708L25.1524 29.8271L40.9462 16.1604L38.2212 13.0083L25.1253 24.3396Z" fill="#292929"/>
</svg>
