<svg width="50" height="50" viewBox="0 0 50 50" fill="none" xmlns="http://www.w3.org/2000/svg">
<path d="M13.4482 39.5833L4.16699 46.875V8.33333C4.16699 7.7808 4.38649 7.25089 4.77719 6.86019C5.16789 6.46949 5.69779 6.25 6.25033 6.25H43.7503C44.3029 6.25 44.8328 6.46949 45.2235 6.86019C45.6142 7.25089 45.8337 7.7808 45.8337 8.33333V37.5C45.8337 38.0525 45.6142 38.5824 45.2235 38.9731C44.8328 39.3638 44.3029 39.5833 43.7503 39.5833H13.4482ZM14.5837 20.8333V25H18.7503V20.8333H14.5837ZM22.917 20.8333V25H27.0837V20.8333H22.917ZM31.2503 20.8333V25H35.417V20.8333H31.2503Z" fill="#292929"/>
</svg>
