<svg width="50" height="50" viewBox="0 0 50 50" fill="none" xmlns="http://www.w3.org/2000/svg">
<path d="M26.2106 5.59583C25.8573 5.34367 25.4341 5.20813 25.0001 5.20813C24.5661 5.20813 24.143 5.34367 23.7897 5.59583L3.99805 19.7333L6.41888 23.1229L25.0001 9.85416L43.5814 23.125L46.0022 19.7354L26.2106 5.59583ZM40.7939 26.4292L26.2106 16.0125C25.8573 15.7603 25.4341 15.6248 25.0001 15.6248C24.5661 15.6248 24.143 15.7603 23.7897 16.0125L9.20638 26.4292C8.93598 26.6217 8.7155 26.876 8.5633 27.171C8.4111 27.466 8.33158 27.7931 8.33138 28.125V41.6667C8.33138 42.2192 8.55087 42.7491 8.94157 43.1398C9.33227 43.5305 9.86218 43.75 10.4147 43.75H39.5814C40.1339 43.75 40.6638 43.5305 41.0545 43.1398C41.4452 42.7491 41.6647 42.2192 41.6647 41.6667V28.125C41.665 27.7934 41.5861 27.4666 41.4346 27.1716C41.2832 26.8767 41.0635 26.6221 40.7939 26.4292Z" fill="#EEEEEE"/>
</svg>
